<svg height="300px" width="300px" fill="#000000" xmlns="http://www.w3.org/2000/svg" xmlns:xlink="http://www.w3.org/1999/xlink" version="1.1" x="0px" y="0px" viewBox="0 0 48 48" enable-background="new 0 0 48 48" xml:space="preserve"><g><path d="M29.5,14.8h14.4c-0.1-0.3-0.3-0.6-0.5-0.8L29.5,1.6V14.8z"></path><path d="M27.6,18.7c-1.1,0-2-0.9-2-2V0.5H5.9c-1.1,0-2,0.9-2,2v43.1c0,1.1,0.9,2,2,2h36.2c1.1,0,2-0.9,2-2V18.7H27.6z M31.8,40.7   H16.2c-1.1,0-2-0.9-2-2s0.9-2,2-2h15.5c1.1,0,2,0.9,2,2S32.8,40.7,31.8,40.7z M31.8,30.5H16.2c-1.1,0-2-0.9-2-2s0.9-2,2-2h15.5 c1.1,0,2,0.9,2,2S32.8,30.5,31.8,30.5z"></path></g></svg>
