<svg id="Capa_1" data-name="Capa 1" xmlns="http://www.w3.org/2000/svg" viewBox="0 0 498.7 498.7"><g id="rust_wasm4" data-name="rust wasm4"><path id="path4404" d="M385.21,42a7.18,7.18,0,0,0-7-.5L355.9,52c-1.79-1-3.61-1.93-5.43-2.85l-4.18-24.26a7.21,7.21,0,0,0-11.36-4.58l-19.8,14.54c-2-.62-4-1.19-5.95-1.75l-8.82-22.92a7.21,7.21,0,0,0-12-2.29L271.72,26c-2.05-.21-4.1-.38-6.16-.54L252.44,4.66a7.21,7.21,0,0,0-12.25.11L227.42,25.84c-2,.19-4.06.42-6.08.67l-17-17.87a7.21,7.21,0,0,0-12,2.51L184,34.3c-2,.58-3.89,1.18-5.83,1.82L158,21.92a7.26,7.26,0,0,0-7-.74,7.17,7.17,0,0,0-4.3,5.54L143,51c-1.81,1-3.63,1.94-5.43,3L115.12,44A7.2,7.2,0,0,0,105,50.9l1.08,24.53c-1.6,1.31-3.18,2.62-4.75,4L77.37,74a7.22,7.22,0,0,0-8.59,8.75l5.87,23.9c-1.3,1.57-2.58,3.17-3.84,4.78l-24.62-.63a7.21,7.21,0,0,0-6.71,10.25L49.9,143.37c-1,1.8-1.92,3.6-2.84,5.42L22.81,153a7.21,7.21,0,0,0-4.59,11.37l14.54,19.79c-.62,2-1.19,4-1.75,6L8.09,198.91a7.19,7.19,0,0,0-2.27,12l18.12,16.58c-.22,2.06-.39,4.11-.54,6.17L2.61,246.81a7.22,7.22,0,0,0,.12,12.26l21.06,12.76c.19,2,.42,4.06.66,6.09l-17.86,17a7.21,7.21,0,0,0,2.51,12l23.15,8.41c.58,2,1.2,3.9,1.84,5.83L19.88,341.25a7.19,7.19,0,0,0,4.79,11.27L49,356.24q1.44,2.73,3,5.43L42,384.12a7.21,7.21,0,0,0,6.91,10.13l24.53-1.09c1.31,1.6,2.63,3.19,4,4.76L72,421.87a7.2,7.2,0,0,0,8.74,8.58l23.91-5.86c1.56,1.3,3.16,2.58,4.77,3.85l-.63,24.62A7.21,7.21,0,0,0,119,459.77l22.31-10.42c1.81,1,3.62,1.92,5.44,2.83l4.18,24.26A7.21,7.21,0,0,0,162.31,481l19.79-14.53q3,.92,6,1.75l8.81,22.92a7.22,7.22,0,0,0,12,2.28l16.58-18.12c2,.21,4.11.37,6.16.54l13.13,20.78a7.2,7.2,0,0,0,12.25-.11l12.77-21.07c2-.19,4.05-.4,6.07-.66l17,17.86a7.21,7.21,0,0,0,12-2.5L313.24,467c1.95-.58,3.9-1.18,5.84-1.82l20.12,14.2a7.2,7.2,0,0,0,11.27-4.8l3.72-24.29c1.83-1,3.64-1.94,5.43-3l22.45,10a7.21,7.21,0,0,0,10.13-6.9l-1.09-24.54c1.6-1.31,3.19-2.63,4.76-4l24,5.41a7.21,7.21,0,0,0,8.58-8.75l-5.86-23.9c1.29-1.57,2.58-3.17,3.84-4.77l24.61.62a7.21,7.21,0,0,0,6.72-10.24l-10.41-22.32q1.44-2.7,2.84-5.43l24.24-4.18A7.21,7.21,0,0,0,479,337l-14.53-19.79c.61-2,1.18-4,1.74-5.95l22.92-8.82a7.2,7.2,0,0,0,2.28-12l-18.12-16.58c.21-2.06.38-4.11.54-6.16l20.78-13.13a7.21,7.21,0,0,0-.11-12.26l-21.06-12.77c-.2-2-.41-4.05-.67-6.07l17.86-17a7.21,7.21,0,0,0-2.5-12L465,186c-.58-2-1.18-3.9-1.82-5.84l14.2-20.12a7.2,7.2,0,0,0-4.79-11.28l-24.3-3.72c-1-1.82-1.94-3.63-2.95-5.43l10-22.46a7.21,7.21,0,0,0-6.91-10.12l-24.54,1.08q-1.95-2.4-4-4.75l5.4-24a7.21,7.21,0,0,0-8.74-8.59l-23.9,5.87c-1.57-1.3-3.17-2.58-4.78-3.83l.63-24.62A7.19,7.19,0,0,0,385.21,42ZM360.67,78.69a14.83,14.83,0,1,1-11.08-2.36,14.73,14.73,0,0,1,11.08,2.36Zm15.1,39.06c39.28,37.61,59.12,88.35,56.67,142.12l-37.16,24.07a13.52,13.52,0,0,0-4,18.68L412.14,334c-27.69,52.69-75.53,84.45-123.3,94.05l-23.09-23.42a13.5,13.5,0,0,0-19.11-.09L221.21,430c-24.89-3.86-49.16-13.49-71.6-28.18a181.92,181.92,0,0,1-54.85-56.46l12.64-32.87a13.49,13.49,0,0,0-7.72-17.46L71.07,284c-8.78-59,3.54-105.66,38.28-149.9L143,139.23a13.53,13.53,0,0,0,15.52-11.17l.33-2,.15.24c3.31-21.39,5-31.65,5.91-37.36,41.83-21.49,94.31-31.18,154.38-7.82l6,32.27a13.49,13.49,0,0,0,15.73,10.83Zm-229.94-9.23a14.9,14.9,0,1,1-29.43-4.62c1.33-8.08,10.14-13.49,17-12.25S146.6,98.49,145.83,108.52ZM434.56,288.17a15,15,0,0,1,4.11,4.21,14.78,14.78,0,1,1-4.11-4.21ZM80.73,305.09a14.81,14.81,0,1,1-2.68-1.36,14.65,14.65,0,0,1,2.68,1.36ZM264.12,426a15.31,15.31,0,0,1,2.31,1.91,14.77,14.77,0,1,1-2.31-1.91Z" transform="translate(0.74 -1.3)"/></g><path d="M356.1,335.36H279.25a30.31,30.31,0,0,0-21.67-21.68V297.47h64.64a18.8,18.8,0,0,0,18.72-18.72V194.93a18.8,18.8,0,0,0-18.72-18.72H257.58a3.49,3.49,0,0,1-3-1.74l-11.37-19.33a18.88,18.88,0,0,0-15.92-9.24H177.78a18.79,18.79,0,0,0-18.72,18.71V278.75a18.8,18.8,0,0,0,18.72,18.72h64.64v16.21a30.31,30.31,0,0,0-21.67,21.68H143.9a7.58,7.58,0,0,0,0,15.16h76.85a30.31,30.31,0,0,0,58.5,0H356.1a7.58,7.58,0,0,0,0-15.16ZM174.21,278.75V164.61a3.57,3.57,0,0,1,3.57-3.56h49.48a3.51,3.51,0,0,1,3,1.75l11.29,19.32a18.73,18.73,0,0,0,16,9.25H322.3a3.56,3.56,0,0,1,3.56,3.56v83.82a3.56,3.56,0,0,1-3.56,3.56H177.78A3.57,3.57,0,0,1,174.21,278.75ZM250,358.09a15.16,15.16,0,1,1,15.16-15.15A15.15,15.15,0,0,1,250,358.09Z" transform="translate(0.74 -1.3)"/></svg>